<?xml version="1.0" encoding="UTF-8" standalone="no"?>
<svg
   xmlns:dc="http://purl.org/dc/elements/1.1/"
   xmlns:cc="http://creativecommons.org/ns#"
   xmlns:rdf="http://www.w3.org/1999/02/22-rdf-syntax-ns#"
   xmlns:svg="http://www.w3.org/2000/svg"
   xmlns="http://www.w3.org/2000/svg"
   xmlns:sodipodi="http://sodipodi.sourceforge.net/DTD/sodipodi-0.dtd"
   xmlns:inkscape="http://www.inkscape.org/namespaces/inkscape"
   version="1.0"
   width="4243.6616"
   height="1143.6622"
   viewBox="0 0 42436.616 11436.622"
   preserveAspectRatio="xMidYMid meet"
   id="svg102"
   sodipodi:docname="logo.svg"
   inkscape:version="0.92.2 5c3e80d, 2017-08-06">
  <metadata
     id="metadata108">
    <rdf:RDF>
      <cc:Work
         rdf:about="">
        <dc:format>image/svg+xml</dc:format>
        <dc:type
           rdf:resource="http://purl.org/dc/dcmitype/StillImage" />
      </cc:Work>
    </rdf:RDF>
  </metadata>
  <defs
     id="defs106" />
  <sodipodi:namedview
     pagecolor="#ffffff"
     bordercolor="#666666"
     borderopacity="1"
     objecttolerance="10"
     gridtolerance="10"
     guidetolerance="10"
     inkscape:pageopacity="0"
     inkscape:pageshadow="2"
     inkscape:window-width="1366"
     inkscape:window-height="691"
     id="namedview104"
     showgrid="false"
     inkscape:zoom="0.1986532"
     inkscape:cx="2600.35"
     inkscape:cy="464.83151"
     inkscape:window-x="0"
     inkscape:window-y="24"
     inkscape:window-maximized="1"
     inkscape:current-layer="text917" />
  <g
     id="layer1"
     style="fill:#1c75bc;stroke:none"
     transform="matrix(0.99,0,0,0.99,-1123.2615,-75.24)">
    <path
       d="m 8736,11322 c -3,-5 5,-19 18,-31 13,-13 26,-18 30,-13 3,5 2,12 -2,16 -4,4 -7,13 -7,19 0,14 -31,21 -39,9 z"
       id="path2"
       inkscape:connector-curvature="0" />
    <path
       d="m 8885,11271 c -7,-12 12,-24 25,-16 11,7 4,25 -10,25 -5,0 -11,-4 -15,-9 z"
       id="path4"
       inkscape:connector-curvature="0" />
    <path
       d="m 8817,11253 c -3,-5 18,-33 47,-62 30,-29 56,-49 59,-44 3,5 -18,33 -47,62 -30,29 -56,49 -59,44 z"
       id="path6"
       inkscape:connector-curvature="0" />
    <path
       d="m 9115,11181 c -7,-12 12,-24 25,-16 11,7 4,25 -10,25 -5,0 -11,-4 -15,-9 z"
       id="path8"
       inkscape:connector-curvature="0" />
    <path
       d="m 9017,11053 c -3,-5 29,-44 72,-87 43,-43 81,-74 84,-69 3,5 -29,44 -72,87 -43,43 -81,74 -84,69 z"
       id="path10"
       inkscape:connector-curvature="0" />
    <path
       d="m 9405,11051 c -3,-6 3,-15 14,-21 12,-6 22,-6 26,-1 3,6 -3,15 -14,21 -12,6 -22,6 -26,1 z"
       id="path12"
       inkscape:connector-curvature="0" />
    <path
       d="m 9646,10931 c -6,-8 5,-20 31,-35 23,-13 22,12 -2,28 -13,9 -26,12 -29,7 z"
       id="path14"
       inkscape:connector-curvature="0" />
    <path
       d="m 9716,10892 c -3,-6 1,-15 8,-21 8,-7 17,-8 20,-3 3,6 -1,15 -8,21 -8,7 -17,8 -20,3 z"
       id="path16"
       inkscape:connector-curvature="0" />
    <path
       d="m 9186,10872 c -3,-5 8,-21 23,-36 16,-15 31,-23 35,-18 3,5 -8,21 -23,36 -16,15 -31,23 -35,18 z"
       id="path18"
       inkscape:connector-curvature="0" />
    <path
       d="m 9856,10812 c -3,-6 1,-15 8,-21 8,-7 17,-8 20,-3 3,6 -1,15 -8,21 -8,7 -17,8 -20,3 z"
       id="path20"
       inkscape:connector-curvature="0" />
    <path
       d="m 9256,10792 c -3,-5 8,-21 23,-36 16,-15 31,-23 35,-18 3,5 -8,21 -23,36 -16,15 -31,23 -35,18 z"
       id="path22"
       inkscape:connector-curvature="0" />
    <path
       d="m 9906,10782 c -3,-6 1,-15 8,-21 8,-7 17,-8 20,-3 3,6 -1,15 -8,21 -8,7 -17,8 -20,3 z"
       id="path24"
       inkscape:connector-curvature="0" />
    <path
       d="m 9326,10712 c -3,-5 3,-17 13,-26 11,-10 22,-13 25,-8 3,5 -3,17 -13,26 -11,10 -22,13 -25,8 z"
       id="path26"
       inkscape:connector-curvature="0" />
    <path
       d="m 9366,10662 c -3,-5 3,-17 13,-26 11,-10 22,-13 25,-8 3,5 -3,17 -13,26 -11,10 -22,13 -25,8 z"
       id="path28"
       inkscape:connector-curvature="0" />
    <path
       d="m 9406,10612 c -3,-5 3,-17 13,-26 11,-10 22,-13 25,-8 3,5 -3,17 -13,26 -11,10 -22,13 -25,8 z"
       id="path30"
       inkscape:connector-curvature="0" />
    <path
       d="m 9446,10562 c -3,-5 3,-17 13,-26 11,-10 22,-13 25,-8 3,5 -3,17 -13,26 -11,10 -22,13 -25,8 z"
       id="path32"
       inkscape:connector-curvature="0" />
    <path
       d="m 9488,10514 c -4,-5 6,-25 21,-43 16,-19 31,-30 34,-24 3,5 -6,25 -22,43 -15,19 -30,29 -33,24 z"
       id="path34"
       inkscape:connector-curvature="0" />
    <path
       d="m 9547,10434 c -3,-6 4,-23 17,-39 13,-15 25,-24 29,-19 3,6 -4,23 -17,39 -13,15 -25,24 -29,19 z"
       id="path36"
       inkscape:connector-curvature="0" />
    <path
       d="m 9597,10364 c -3,-6 4,-23 17,-39 13,-15 25,-24 29,-19 3,6 -4,23 -17,39 -13,15 -25,24 -29,19 z"
       id="path38"
       inkscape:connector-curvature="0" />
    <path
       d="m 9648,10295 c -9,-10 62,-116 73,-109 10,6 -11,46 -46,90 -11,14 -23,22 -27,19 z"
       id="path40"
       inkscape:connector-curvature="0" />
    <path
       d="m 9747,10143 c -3,-5 6,-27 20,-48 150,-221 378,-673 502,-995 29,-74 57,-146 63,-160 6,-14 12,-28 14,-32 1,-5 3,-10 4,-13 1,-3 4,-9 5,-15 1,-5 4,-12 5,-15 1,-3 4,-9 5,-15 1,-5 3,-11 4,-12 2,-2 4,-13 6,-24 3,-12 10,-34 16,-50 7,-16 13,-32 14,-36 2,-5 4,-11 5,-15 1,-5 2,-11 1,-15 0,-4 4,-20 11,-35 6,-15 11,-31 10,-35 -1,-4 3,-20 10,-35 6,-15 12,-31 13,-35 2,-5 3,-9 4,-10 1,-2 4,-19 7,-38 2,-19 8,-38 13,-43 5,-5 7,-15 5,-22 -3,-7 -1,-16 5,-19 6,-4 8,-13 5,-20 -3,-8 -1,-17 5,-20 6,-4 8,-13 5,-20 -3,-8 -1,-17 5,-20 6,-4 8,-13 5,-20 -3,-8 -1,-17 5,-20 6,-4 8,-13 5,-20 -3,-8 -1,-17 5,-20 6,-4 8,-13 5,-20 -3,-8 -1,-17 5,-20 14,-9 25,14 13,26 -6,6 -8,16 -6,23 3,7 1,16 -5,19 -6,4 -8,13 -5,20 3,8 1,17 -5,20 -6,4 -8,13 -5,20 3,8 1,17 -5,20 -6,4 -8,13 -5,20 3,8 1,17 -5,20 -6,4 -8,13 -5,20 3,8 1,17 -5,20 -6,4 -8,12 -5,20 3,7 -1,26 -7,42 -7,16 -13,32 -14,37 -2,4 -4,10 -5,15 -1,4 -2,10 -1,14 0,4 -4,20 -11,35 -6,15 -11,31 -10,35 1,4 -3,20 -10,35 -6,15 -12,31 -13,36 -2,4 -4,10 -5,15 -1,4 -2,10 -1,15 1,4 -6,24 -16,45 -9,20 -17,40 -18,45 -2,4 -4,9 -5,12 -1,3 -4,10 -5,15 -1,6 -4,12 -5,15 -1,3 -4,10 -5,15 -1,6 -3,11 -4,13 -2,1 -4,13 -7,26 -7,39 -102,274 -179,446 -83,184 -201,410 -310,593 -88,148 -110,178 -118,165 z"
       id="path42"
       inkscape:connector-curvature="0" />
    <path
       d="m 12125,8300 c -9,-15 25,-74 37,-62 6,6 4,20 -6,41 -18,33 -22,36 -31,21 z"
       id="path44"
       inkscape:connector-curvature="0" />
    <path
       d="m 10544,8196 c -4,-9 -1,-22 5,-30 6,-7 8,-16 5,-19 -4,-3 -3,-14 1,-24 5,-10 7,-25 6,-35 -1,-9 2,-19 8,-22 5,-3 7,-15 4,-25 -3,-10 0,-22 6,-26 16,-9 26,22 12,39 -6,7 -8,16 -5,19 4,3 3,14 -1,24 -5,10 -7,25 -6,35 1,9 -2,19 -8,22 -5,3 -7,15 -4,25 6,23 -15,38 -23,17 z"
       id="path46"
       inkscape:connector-curvature="0" />
    <path
       d="m 12185,8171 c -4,-8 -1,-19 8,-28 19,-20 30,-1 13,22 -10,14 -15,15 -21,6 z"
       id="path48"
       inkscape:connector-curvature="0" />
    <path
       d="m 12215,8100 c -4,-6 0,-19 8,-28 8,-9 13,-22 10,-28 -2,-6 3,-17 11,-23 8,-7 13,-18 10,-25 -3,-7 2,-18 10,-25 8,-7 13,-18 10,-26 -7,-16 12,-29 21,-15 4,6 1,17 -5,25 -7,8 -9,15 -5,15 4,0 0,11 -9,25 -9,14 -14,25 -11,25 3,0 0,10 -7,23 -6,12 -13,28 -14,36 -4,22 -21,34 -29,21 z"
       id="path50"
       inkscape:connector-curvature="0" />
    <path
       d="m 10585,7990 c -4,-6 -3,-16 3,-22 6,-6 12,-6 17,2 4,6 3,16 -3,22 -6,6 -12,6 -17,-2 z"
       id="path52"
       inkscape:connector-curvature="0" />
    <path
       d="M 3110,7889 C 2797,7617 2430,7212 2193,6875 1757,6255 1462,5602 1284,4864 c -41,-171 -41,-172 12,-385 132,-540 341,-1052 629,-1544 225,-384 475,-720 767,-1030 132,-141 398,-395 413,-395 7,0 71,-18 141,-39 339,-104 717,-179 1129,-223 164,-18 864,-17 1045,0 329,32 613,82 925,162 213,54 571,170 568,184 -1,5 -84,42 -184,83 -1328,536 -2402,1552 -3021,2858 -246,517 -418,1084 -497,1635 -47,323 -55,452 -55,830 0,379 9,521 55,829 11,74 16,138 11,143 -4,4 -55,-33 -112,-83 z"
       id="path54"
       inkscape:connector-curvature="0" />
    <path
       d="m 12295,7900 c -4,-6 -3,-16 3,-22 6,-6 12,-6 17,2 4,6 3,16 -3,22 -6,6 -12,6 -17,-2 z"
       id="path56"
       inkscape:connector-curvature="0" />
    <path
       d="m 12316,7852 c -4,-7 76,-266 101,-322 3,-8 6,-18 5,-22 -1,-4 3,-20 10,-35 6,-15 11,-31 10,-35 -1,-4 3,-19 8,-34 7,-18 14,-24 21,-17 6,6 6,19 -2,39 -7,16 -12,32 -11,36 1,4 -3,20 -10,35 -6,15 -11,31 -10,35 2,10 -99,312 -108,321 -4,5 -10,4 -14,-1 z"
       id="path58"
       inkscape:connector-curvature="0" />
    <path
       d="m 12475,7339 c -4,-6 -3,-15 3,-21 6,-6 8,-16 6,-23 -3,-7 -1,-16 4,-19 6,-3 8,-15 5,-25 -3,-10 0,-22 6,-25 5,-4 8,-13 5,-20 -3,-8 -1,-17 5,-20 6,-4 8,-13 5,-20 -3,-8 -1,-17 5,-20 6,-4 8,-13 5,-20 -3,-8 -1,-17 5,-20 14,-9 25,14 13,26 -6,6 -8,16 -6,23 3,7 1,16 -5,19 -6,4 -8,13 -5,20 3,8 1,17 -4,20 -6,3 -8,15 -5,25 3,10 0,22 -6,25 -5,4 -8,13 -5,20 3,8 1,17 -5,20 -6,4 -8,13 -5,20 7,17 -12,30 -21,15 z"
       id="path60"
       inkscape:connector-curvature="0" />
    <path
       d="m 12545,7040 c -4,-6 -3,-16 3,-22 6,-6 12,-6 17,2 4,6 3,16 -3,22 -6,6 -12,6 -17,-2 z"
       id="path62"
       inkscape:connector-curvature="0" />
    <path
       d="m 12555,6990 c -4,-6 -3,-16 3,-22 6,-6 12,-6 17,2 4,6 3,16 -3,22 -6,6 -12,6 -17,-2 z"
       id="path64"
       inkscape:connector-curvature="0" />
    <path
       d="m 12565,6930 c -4,-6 -3,-16 3,-22 6,-6 12,-6 17,2 4,6 3,16 -3,22 -6,6 -12,6 -17,-2 z"
       id="path66"
       inkscape:connector-curvature="0" />
    <path
       d="m 12575,6880 c -4,-6 -3,-16 3,-22 6,-6 12,-6 17,2 4,6 3,16 -3,22 -6,6 -12,6 -17,-2 z"
       id="path68"
       inkscape:connector-curvature="0" />
    <path
       d="m 12594,6766 c -4,-10 -2,-22 4,-28 8,-8 13,-7 18,6 4,10 2,22 -4,28 -8,8 -13,7 -18,-6 z"
       id="path70"
       inkscape:connector-curvature="0" />
    <path
       d="m 12604,6696 c -4,-10 -2,-22 4,-28 8,-8 13,-7 18,6 4,10 2,22 -4,28 -8,8 -13,7 -18,-6 z"
       id="path72"
       inkscape:connector-curvature="0" />
    <path
       d="m 12615,6620 c -4,-6 -3,-16 3,-22 6,-6 12,-6 17,2 4,6 3,16 -3,22 -6,6 -12,6 -17,-2 z"
       id="path74"
       inkscape:connector-curvature="0" />
    <path
       d="m 12635,6460 c -4,-6 -3,-16 3,-22 6,-6 12,-6 17,2 4,6 3,16 -3,22 -6,6 -12,6 -17,-2 z"
       id="path76"
       inkscape:connector-curvature="0" />
    <path
       d="m 12665,5878 c -9,-24 -1,-143 10,-143 13,0 19,135 6,148 -7,7 -12,5 -16,-5 z"
       id="path78"
       inkscape:connector-curvature="0" />
    <path
       d="m 12634,5256 c -4,-10 -2,-22 4,-28 8,-8 13,-7 18,6 4,10 2,22 -4,28 -8,8 -13,7 -18,-6 z"
       id="path80"
       inkscape:connector-curvature="0" />
    <path
       d="m 12605,5020 c -4,-6 -3,-16 3,-22 6,-6 12,-6 17,2 4,6 3,16 -3,22 -6,6 -12,6 -17,-2 z"
       id="path82"
       inkscape:connector-curvature="0" />
    <path
       d="m 12595,4950 c -4,-6 -3,-16 3,-22 6,-6 12,-6 17,2 4,6 3,16 -3,22 -6,6 -12,6 -17,-2 z"
       id="path84"
       inkscape:connector-curvature="0" />
    <path
       d="m 12565,4780 c -4,-6 -3,-16 3,-22 6,-6 12,-6 17,2 4,6 3,16 -3,22 -6,6 -12,6 -17,-2 z"
       id="path86"
       inkscape:connector-curvature="0" />
    <path
       d="m 12555,4730 c -4,-6 -3,-16 3,-22 6,-6 12,-6 17,2 4,6 3,16 -3,22 -6,6 -12,6 -17,-2 z"
       id="path88"
       inkscape:connector-curvature="0" />
  </g>
  <g
     id="layer2"
     style="fill:#27aae1;stroke:none"
     transform="matrix(0.99,0,0,0.99,-1123.2615,-75.24)">
    <path
       d="m 6625,11623 c -22,-1 -105,-8 -185,-14 C 5102,11510 3792,10905 2833,9941 2352,9458 2007,8977 1716,8379 1402,7736 1223,7090 1148,6335 c -20,-204 -17,-820 5,-1025 36,-326 84,-617 102,-613 6,1 20,46 33,100 202,864 562,1624 1086,2293 812,1037 1954,1764 3236,2060 447,103 826,145 1310,145 306,0 468,-10 740,-45 1020,-131 2022.2358,-565.5194 2834.236,-1207.5194 90.317,-107.6818 142.758,-105.3741 146.166,-99.1791 8.166,14.8398 -59.334,259.2875 -107.334,453.2875 C 10257.657,9594.339 9667,10462 8825,11251 c -98,92 -86,86 -335,159 -490,142 -1077,222 -1605,218 -121,-1 -238,-3 -260,-5 z"
       id="path91"
       inkscape:connector-curvature="0"
       sodipodi:nodetypes="ccccccccccsccsccccc" />
  </g>
  <g
     id="layer3"
     style="fill:#2b3990;stroke:none"
     transform="matrix(0.99,0,0,0.99,-1123.2615,-75.24)">
    <path
       d="m 8757,11314 c -3,-4 71,-81 165,-173 713,-691 1230,-1549 1513,-2509 234.296,-802.6822 205.136,-904.8686 211,-1117 25,-238 25,-792 1,-1030 -22,-211 -59,-462 -91,-620 C 10195,4097 9044,2609 7435,1829 6803,1523 6135.6441,1307.2203 5420,1268 c -181,-17 -881,-18 -1045,0 -414,44 -787,118 -1133,224 -85,26 -137,37 -143,31 -6,-6 30,-42 98,-100 818,-685 1835,-1141 2883,-1292 312,-45 462,-55 830,-55 367,0 521,10 830,55 1108,159 2177,658 3010,1405 796,713 1379,1624 1689,2639 42,136 127,471 136,534 3,20 7,45 10,56 20,89 27,129 39,235 2,14 8,52 14,85 6,33 13,89 16,125 2,36 10,112 17,170 16,143 16,779 0,935 -7,66 -14,143 -17,170 -2,28 -6,66 -10,85 -4,19 -9,44 -10,55 -2,11 -5,36 -8,55 -3,19 -8,58 -11,85 -3,28 -8,61 -12,75 -8,29 -9,34 -28,135 -14,78 -24,124 -39,174 -8,30 -15,57 -14,60 1,3 -1,13 -5,21 -3,8 -11,40 -18,70 -6,30 -23,91 -36,135 -40,128 -134,418 -144,443 -5,12 -14,34 -20,50 -7,15 -16,37 -20,50 -5,12 -13,32 -18,45 -39,102 -68,165 -191,422 -314,655 -843,1323 -1450,1834 -197,166 -534,409 -669,483 -51,28 -64,35 -120,72 -25,16 -58,35 -75,43 -17,7 -49,25 -71,38 -70,42 -356,185 -455,227 -52,22 -117,51 -145,63 -27,12 -79,32 -115,45 -36,12 -74,26 -85,31 -28,12 -106,39 -115,39 -3,0 -10,-3 -13,-6 z"
       id="path94"
       inkscape:connector-curvature="0"
       sodipodi:nodetypes="ccccccccccsccsccccccsccccscsccccscccccccccccccccccsc" />
  </g>
  <g
     aria-label="mnia it"
     style="font-style:normal;font-variant:normal;font-weight:normal;font-stretch:normal;font-size:1485px;line-height:1.25;font-family:'A Glitch In Time';-inkscape-font-specification:'A Glitch In Time';letter-spacing:0px;word-spacing:0px;fill:#2b3990;fill-opacity:1;stroke:none;stroke-width:37.125;image-rendering:optimizeQuality"
     id="text917">
    <path
       d="m 16344.35,5716.0061 -1846.152,2245.32 h -21.384 -14.256 q -14.256,-14.256 -49.896,-42.768 -28.512,-35.64 -42.768,-49.896 l -2680.128,-3293.136 28.512,-28.512 h 705.672 q 28.512,0 57.024,21.384 28.512,21.384 42.768,35.64 l 1846.152,2337.984 q 14.256,14.256 42.768,49.896 35.64,35.64 49.896,42.768 h 14.256 21.384 l 14.256,-14.256 q 14.256,-14.256 14.256,-14.256 l 1867.536,-2459.16 h 684.288 V 10242.286 H 16451.27 V 5623.3421 Z"
       style="font-style:normal;font-variant:normal;font-weight:normal;font-stretch:normal;font-size:7128px;font-family:PROMETHEUS;-inkscape-font-specification:PROMETHEUS;fill:#2b3990;fill-opacity:1;stroke-width:37.125"
       id="path57" />
    <path
       d="m 17648.329,4539.8861 h 798.336 l 3970.296,4875.552 v -4875.552 h 627.264 v 5709.5279 h -627.264 z"
       style="font-style:normal;font-variant:normal;font-weight:normal;font-stretch:normal;font-size:7128px;font-family:PROMETHEUS;-inkscape-font-specification:PROMETHEUS;fill:#2b3990;fill-opacity:1;stroke-width:37.125"
       id="path59" />
    <path
       d="m 24233.821,4547.0141 v 5695.2719 h -620.136 V 4547.0141 Z"
       style="font-style:normal;font-variant:normal;font-weight:normal;font-stretch:normal;font-size:7128px;font-family:PROMETHEUS;-inkscape-font-specification:PROMETHEUS;fill:#2b3990;fill-opacity:1;stroke-width:37.125"
       id="path61" />
    <path
       d="m 28581.344,4554.1421 3735.072,5681.0159 h -734.184 L 29907.152,7690.4621 H 27241.28 l -1682.208,2544.6959 h -727.056 z m 898.128,2480.544 -898.128,-1397.088 -912.384,1397.088 z"
       style="font-style:normal;font-variant:normal;font-weight:normal;font-stretch:normal;font-size:7128px;font-family:PROMETHEUS;-inkscape-font-specification:PROMETHEUS;fill:#2b3990;fill-opacity:1;stroke-width:37.125"
       id="path63" />
    <path
       d="m 37069.79,4547.0141 v 5695.2719 h -620.136 V 4547.0141 Z"
       style="font-style:normal;font-variant:normal;font-weight:normal;font-stretch:normal;font-size:7128px;font-family:PROMETHEUS;-inkscape-font-specification:PROMETHEUS;fill:#2b3990;fill-opacity:1;stroke-width:37.125"
       id="path65" />
    <path
       d="m 37539.681,5117.2541 v -605.88 h 4896.936 v 605.88 h -2067.12 v 5125.0319 h -648.648 V 5117.2541 Z"
       style="font-style:normal;font-variant:normal;font-weight:normal;font-stretch:normal;font-size:7128px;font-family:PROMETHEUS;-inkscape-font-specification:PROMETHEUS;fill:#2b3990;fill-opacity:1;stroke-width:37.125"
       id="path67" />
  </g>
</svg>
